<svg width="32" height="32" viewBox="0 0 32 32" fill="none" xmlns="http://www.w3.org/2000/svg">
<rect width="32" height="32" fill="white"/>
<path fill-rule="evenodd" clip-rule="evenodd" d="M30.3018 15.6509C30.3018 23.7423 23.7424 30.3018 15.6509 30.3018C7.55943 30.3018 1 23.7423 1 15.6509C1 7.55943 7.55943 1 15.6509 1C23.7424 1 30.3018 7.55943 30.3018 15.6509ZM15.6509 26.3018C21.5332 26.3018 26.3018 21.5332 26.3018 15.6509C26.3018 9.76856 21.5332 5 15.6509 5C9.76856 5 5 9.76856 5 15.6509C5 21.5332 9.76856 26.3018 15.6509 26.3018ZM28.2249 15.5769C28.2249 22.4805 22.6284 28.0769 15.7249 28.0769C8.82129 28.0769 3.22485 22.4805 3.22485 15.5769C3.22485 8.67336 8.82129 3.07692 15.7249 3.07692C22.6284 3.07692 28.2249 8.67336 28.2249 15.5769ZM12.7024 8.40039C12.2433 8.69695 12.9304 9.58579 12.9304 9.58579H14.569L14.6154 8.35097C14.6154 8.35097 13.1615 8.10384 12.7024 8.40039ZM12.7709 23.095C12.8359 22.2495 12.8684 21.2088 12.8684 19.973V10.8409C12.6993 10.8409 12.4196 10.8734 12.0294 10.9385C11.6391 11.0035 11.2944 11.0686 10.9952 11.1336L10.9171 11.0165L11.3659 9.63111H16.1661C17.3889 9.63111 18.4231 9.79372 19.2687 10.1189C20.1272 10.4311 20.7712 10.8929 21.2005 11.5043C21.6427 12.1158 21.8639 12.8442 21.8639 13.6898C21.8639 14.5484 21.6427 15.2834 21.2005 15.8948C20.7712 16.5062 20.1272 16.9745 19.2687 17.2997C18.4231 17.6249 17.3889 17.7875 16.1661 17.7875H14.5465V22.0803C14.7417 22.0803 15.0669 22.0478 15.5222 21.9828C15.9775 21.9047 16.3547 21.8397 16.6539 21.7877L16.732 21.9047L16.2832 23.2901H12.7709V23.095ZM16.3417 16.4997C17.5906 16.4997 18.5402 16.259 19.1906 15.7777C19.8411 15.2964 20.1663 14.6199 20.1663 13.7483C20.1663 12.8898 19.8345 12.2198 19.1711 11.7385C18.5207 11.2572 17.5776 11.0165 16.3417 11.0165H14.5465V16.4997H16.3417Z" fill="#191919"/>
</svg>
